<?xml version="1.0" standalone="no"?>
<!DOCTYPE svg PUBLIC "-//W3C//DTD SVG 20010904//EN"
 "http://www.w3.org/TR/2001/REC-SVG-20010904/DTD/svg10.dtd">
<svg version="1.0" xmlns="http://www.w3.org/2000/svg"
 width="50.000000pt" height="50.000000pt" viewBox="0 0 50.000000 50.000000"
 preserveAspectRatio="xMidYMid meet">

<g transform="translate(0.000000,50.000000) scale(0.100000,-0.100000)"
fill="#000000" stroke="none">
<path d="M123 387 c-68 -34 -123 -65 -123 -69 0 -3 9 -10 20 -13 17 -6 20 -15
20 -76 0 -38 -5 -78 -12 -89 -10 -15 -9 -24 2 -44 17 -32 23 -32 40 0 11 20
12 29 2 44 -13 21 -17 140 -4 140 17 -1 30 -16 33 -40 5 -31 32 -38 149 -38
119 0 144 7 148 39 2 20 14 31 53 49 27 13 49 26 49 29 0 5 -246 132 -253 130
-1 0 -57 -28 -124 -62z m232 -9 c58 -29 105 -55 105 -59 0 -3 -12 -11 -26 -18
-22 -10 -28 -9 -39 6 -12 16 -30 18 -145 18 -115 0 -133 -2 -145 -18 -11 -15
-17 -16 -39 -6 -14 7 -26 15 -26 18 0 5 192 107 207 110 2 1 50 -23 108 -51z
m-6 -74 c23 -5 31 -12 31 -28 0 -20 -4 -21 -130 -21 -127 0 -130 1 -130 22 0
14 7 23 23 26 36 7 172 8 206 1z m-9 -74 c0 -6 -37 -10 -90 -10 -53 0 -90 4
-90 10 0 6 37 10 90 10 53 0 90 -4 90 -10z m-280 -110 c0 -5 -4 -10 -10 -10
-5 0 -10 5 -10 10 0 6 5 10 10 10 6 0 10 -4 10 -10z"/>
<path d="M136 148 c-9 -36 -7 -78 4 -78 6 0 10 12 11 28 1 25 1 26 7 4 9 -30
25 -30 34 0 6 22 6 21 7 -4 1 -36 21 -36 21 0 0 35 -10 72 -20 72 -4 0 -11
-15 -17 -32 l-10 -33 -7 33 c-9 37 -21 41 -30 10z"/>
<path d="M240 119 c0 -49 1 -50 28 -47 24 3 27 7 27 38 0 42 -11 60 -36 60
-16 0 -19 -8 -19 -51z m40 27 c0 -3 -4 -8 -10 -11 -5 -3 -10 -1 -10 4 0 6 5
11 10 11 6 0 10 -2 10 -4z m0 -45 c0 -6 -4 -13 -10 -16 -5 -3 -10 1 -10 9 0 9
5 16 10 16 6 0 10 -4 10 -9z"/>
<path d="M323 123 c-10 -43 -7 -76 4 -45 6 16 30 16 36 0 11 -31 15 2 5 45
-12 60 -32 60 -45 0z m24 -5 c-3 -8 -6 -5 -6 6 -1 11 2 17 5 13 3 -3 4 -12 1
-19z"/>
</g>
</svg>
