<?xml version="1.0" standalone="no"?>
<!DOCTYPE svg PUBLIC "-//W3C//DTD SVG 20010904//EN"
 "http://www.w3.org/TR/2001/REC-SVG-20010904/DTD/svg10.dtd">
<svg version="1.0" xmlns="http://www.w3.org/2000/svg"
 width="450.000000pt" height="450.000000pt" viewBox="0 0 450.000000 450.000000"
 preserveAspectRatio="xMidYMid meet">

<g transform="translate(0.000000,450.000000) scale(0.100000,-0.100000)"
fill="#000000" stroke="none">
<path d="M2075 4494 c-268 -28 -484 -82 -695 -171 -270 -115 -479 -254 -694
-463 -317 -307 -526 -676 -629 -1110 -71 -295 -71 -705 0 -1000 98 -414 287
-759 583 -1064 352 -363 782 -584 1290 -663 159 -24 481 -24 640 0 508 79 938
300 1290 663 340 350 541 757 617 1244 35 231 21 591 -34 820 -98 414 -287
759 -583 1064 -350 361 -785 585 -1285 662 -97 15 -420 26 -500 18z m456 -677
c345 -71 614 -214 847 -449 201 -203 335 -435 406 -702 44 -166 51 -224 51
-416 0 -192 -7 -250 -51 -416 -71 -267 -205 -499 -406 -702 -238 -241 -515
-384 -873 -454 -93 -18 -417 -18 -510 0 -358 70 -635 213 -873 454 -201 203
-335 435 -406 702 -44 166 -51 224 -51 416 0 192 7 251 51 415 72 272 212 511
416 713 242 239 539 390 868 442 41 7 82 13 90 15 40 10 372 -4 441 -18z"/>
<path d="M2185 3584 c-75 -39 -104 -96 -105 -200 l0 -71 -67 -18 c-349 -95
-519 -387 -419 -720 17 -57 74 -156 114 -199 70 -74 220 -167 335 -207 l37
-13 0 -269 0 -269 -27 6 c-52 12 -168 75 -223 121 -94 77 -150 92 -228 59 -96
-40 -145 -134 -121 -231 29 -113 298 -288 519 -339 l80 -18 0 -85 c0 -103 20
-155 75 -197 51 -39 152 -46 211 -16 78 40 104 93 104 216 l0 85 43 11 c155
39 300 119 377 208 93 107 147 273 135 412 -24 278 -167 451 -466 562 l-89 32
0 238 c0 193 3 238 13 238 20 0 113 -34 177 -64 66 -31 117 -33 169 -6 111 56
149 195 80 292 -37 52 -235 140 -378 169 l-61 12 0 64 c0 137 -70 213 -197
213 -33 0 -71 -7 -88 -16z m-105 -839 c0 -85 -3 -155 -8 -155 -19 0 -83 53
-97 81 -20 39 -22 131 -2 159 19 27 77 70 94 70 10 0 13 -34 13 -155z m433
-741 c157 -79 166 -278 16 -354 -21 -11 -43 -20 -49 -20 -6 0 -10 67 -10 195
0 107 2 195 5 195 4 0 20 -7 38 -16z"/>
</g>
</svg>
